<svg
  xmlns="http://www.w3.org/2000/svg"
  viewBox="0 0 28.88 28.88"
  width="28.88"
  height="28.88"
>
              <path
    d="M14.4327 28.8786C22.4127 28.8786 28.8727 22.4086 28.8727 14.4386C28.8727 6.4686 22.4127 -0.0014 14.4327 -0.0014C6.4627 -0.0014 0.0027 6.4686 0.0027 14.4386C0.0027 22.4086 6.4627 28.8786 14.4327 28.8786ZM12.9327 21.2986C12.3227 21.2986 11.8427 21.0286 11.4027 20.4986L8.1927 16.6686C7.8727 16.2786 7.7527 15.9386 7.7527 15.5486C7.7527 14.6986 8.4327 14.0286 9.2727 14.0286C9.7627 14.0286 10.1427 14.2186 10.5127 14.6586L12.8927 17.5986L18.2227 9.1186C18.5827 8.5486 19.0327 8.2586 19.5627 8.2586C20.3827 8.2586 21.1327 8.8586 21.1327 9.7086C21.1327 10.0486 21.0027 10.4186 20.7527 10.7686L14.4127 20.4786C14.0527 20.9986 13.5227 21.2986 12.9327 21.2986Z"
  />
            </svg>
