<svg
  width="14"
  height="16"
  viewBox="0 0 14 16"
  fill="none"
  xmlns="http://www.w3.org/2000/svg"
>
                  <path
    d="M2 1C2 0.446875 1.55313 0 1 0C0.446875 0 0 0.446875 0 1V2V11.5V15C0 15.5531 0.446875 16 1 16C1.55313 16 2 15.5531 2 15V11L4.00937 10.4969C5.29375 10.175 6.65313 10.325 7.8375 10.9156C9.21875 11.6062 10.8219 11.6906 12.2656 11.1469L13.35 10.7406C13.7406 10.5938 14 10.2219 14 9.80313V2.0625C14 1.34375 13.2438 0.875 12.6 1.19687L12.3 1.34687C10.8531 2.07187 9.15 2.07187 7.70312 1.34687C6.60625 0.796875 5.34687 0.659375 4.15625 0.95625L2 1.5V1Z"
    fill="white"
  />
                </svg>
