              <svg
                width="16"
                height="16"
                viewBox="0 0 16 16"
                fill="none"
                xmlns="http://www.w3.org/2000/svg"
              >
                <path
                  d="M1.51562 7.00022H1.25C0.834375 7.00022 0.5 6.66585 0.5 6.25022V2.25022C0.5 1.9471 0.68125 1.6721 0.9625 1.55647C1.24375 1.44085 1.56562 1.50335 1.78125 1.71897L3.08125 3.01897C5.81875 0.315849 10.2281 0.325224 12.95 3.05022C15.6844 5.7846 15.6844 10.2158 12.95 12.9502C10.2156 15.6846 5.78437 15.6846 3.05 12.9502C2.65937 12.5596 2.65937 11.9252 3.05 11.5346C3.44062 11.144 4.075 11.144 4.46562 11.5346C6.41875 13.4877 9.58438 13.4877 11.5375 11.5346C13.4906 9.58147 13.4906 6.41585 11.5375 4.46272C9.59375 2.51897 6.45312 2.5096 4.49687 4.43147L5.78125 5.71897C5.99688 5.9346 6.05937 6.25647 5.94375 6.53772C5.82812 6.81897 5.55312 7.00022 5.25 7.00022H1.51562Z"
                  fill="#49A2D5"
                />
              </svg>